<svg xmlns="http://www.w3.org/2000/svg" height="2048" preserveAspectRatio="none" style="display: block;" version="1.1" viewBox="0 0 2048 2048" width="2048">
<path d="M 1019.76 33.6996 L 1020.77 31.3092 C 1021.96 28.5444 1020.98 29.1634 1022.92 26.4309 L 1022.84 26.6223 L 1024.4 25.9447 C 1027.85 29.2589 1022.48 32.7595 1029.1 33.9946 C 1032.97 38.6542 1031.59 41.2755 1032.83 46.8479 C 1035.34 58.0355 1037.94 69.2138 1040.57 80.3775 L 1081.32 254.868 C 1081.87 257.321 1085.52 279.074 1085.27 278.639 C 1089.6 286.265 1120.36 287.374 1128.88 288.546 C 1190.47 297.588 1250.76 313.972 1308.46 337.349 C 1521.36 426.316 1681.3 608.539 1741.9 831.18 C 1750.44 862.235 1756.82 893.845 1760.98 925.782 C 1762.95 940.079 1764.35 947.07 1764.23 961.853 C 1765.47 963.289 1767.95 966.715 1769.37 967.094 C 1776.01 968.873 1783.87 970.168 1790.64 971.493 C 1806.85 974.588 1823.04 977.792 1839.22 981.106 L 2026.48 1020.87 C 2030.17 1021.63 2033.6 1022.32 2034.13 1025.88 C 2030.17 1030.67 2013.79 1032.06 2007.22 1033.46 L 1972.4 1041.07 L 1813.52 1074.58 C 1797.81 1077.93 1779.68 1079.32 1765.15 1086.64 C 1762.72 1087.86 1764.66 1104.71 1764.01 1107.16 C 1760.81 1119.38 1754.79 1179.02 1748.41 1186.01 C 1748.24 1188.49 1748.02 1190.94 1748.11 1193.43 C 1748.5 1203.81 1739.66 1226.71 1736.6 1237.29 C 1705.48 1345.22 1644.42 1448.99 1567.63 1530.69 C 1486.13 1617.4 1383.87 1687.52 1270.95 1726.36 C 1237.35 1737.91 1203.09 1748.42 1168.07 1754.77 C 1151.11 1757.84 1134.24 1759.56 1117.22 1761.82 C 1111.39 1762.59 1085.13 1763.44 1082.22 1767.37 C 1078.37 1772.59 1074.99 1798.66 1073.26 1806.92 L 1047.7 1929.09 C 1045.19 1941.49 1032.74 2008.14 1028.16 2013.09 C 1021.81 2018.4 1030.54 2024.03 1019.84 2020.94 C 1020.58 2006.85 1006.94 1957.52 1003.28 1940.42 L 969.099 1779.36 C 968.741 1777.74 965.98 1765.8 964.879 1765.68 C 932.744 1762.12 902.526 1757.77 870.773 1751.16 C 773.291 1730.61 681.146 1690.02 600.186 1631.96 C 425.014 1507.62 313.812 1323.3 289.205 1112.07 C 288.168 1103.17 287.45 1094.33 285.959 1085.51 C 281.797 1082.19 230.528 1073.53 221.241 1071.57 C 156.399 1057.86 91.9942 1041.95 27.1762 1028.17 C 23.1797 1027.32 18.6749 1026.09 16.4898 1022.53 C 19.6536 1019.14 53.7629 1015.14 62.2574 1013.49 C 117.654 1002.48 172.961 991.014 228.172 979.105 C 240.628 976.53 276.699 970.665 286.087 966.348 C 287.805 959.491 287.736 951.389 288.541 944.12 C 308.219 761.609 394.971 592.907 531.974 470.727 C 541.706 461.982 553.163 454.123 563.256 445.839 C 667.495 360.272 795.349 304.835 929.264 288.397 C 936.221 287.543 943.148 285.675 949.511 284.561 C 956.468 283.342 962.919 286.811 969.539 281.569 C 971.234 277.954 974.765 257.947 975.749 253.012 L 989.683 183.657 L 1008.6 91.397 C 1011.52 77.4741 1018.24 48.0865 1019.62 35.0065 L 1019.76 33.6996 z M 693.104 629.806 C 693.584 629.199 694.077 628.601 694.58 628.013 C 703.132 618.119 710.381 616.095 719.678 608.535 C 769.163 568.301 857.984 523.753 921.903 518.642 C 923.432 516.415 925.758 513.566 927.458 511.363 C 927.667 497.771 933.868 471.329 936.658 456.678 L 958.237 344.826 C 960.103 335.148 964.027 317.537 964.047 308.247 C 964.059 302.704 926.365 310.059 921.405 310.732 C 784.469 329.322 657.873 388.075 554.276 479.398 C 545.62 487.029 525.437 501.913 521.113 511.892 C 519.323 512.543 519.277 512.918 518.765 514.884 C 517.859 518.364 513.29 517.701 512.127 518.63 C 511.821 519.625 511.793 520.715 511.623 521.738 C 497.221 526.029 433.231 611.478 422.378 628.753 C 419.537 633.276 414.656 639.821 411.572 644.565 C 405.356 659.279 396.04 672.177 388.734 686.065 C 366.38 728.285 348.274 772.622 334.682 818.421 C 331.387 829.237 328.227 840.077 324.809 850.856 C 323.864 854.77 324.773 859.789 323.765 863.617 C 319.352 880.303 315.786 897.045 313.693 914.202 C 311.935 928.616 307.393 944.572 308.455 958.875 C 308.773 963.151 315.58 963.018 318.628 962.357 L 452.893 934.146 C 474.512 929.739 497.791 926.174 518.666 919.641 C 524.599 917.785 526.769 890.778 528.509 884.648 C 541.783 837.905 559.636 794.478 586.058 753.491 C 595.812 738.36 605.157 722.984 616.796 709.063 C 621.257 703.515 626.424 697.305 631.268 691.967 C 632.618 690.48 616.51 668.74 614.716 666.183 L 593.064 634.779 C 569.808 601.487 545.197 565.141 521.472 532.51 C 521.657 514.297 515.701 523.679 530.688 521.106 C 544.362 534.062 562.604 544.807 578.122 555.552 C 605.111 574.24 632.445 592.434 659.403 611.163 C 664.397 614.633 669.716 619.782 674.61 622.829 C 680.232 626.396 686.527 628.771 693.104 629.806 z M 1123.82 1537.67 C 1125.6 1551.16 1120.67 1560.4 1119.64 1570.4 C 1117.45 1591.68 1084.24 1734.97 1087.23 1742.32 C 1093.04 1744.12 1096.71 1742.99 1102.52 1742.41 C 1143.09 1738.35 1183.15 1731.24 1222.49 1720.29 C 1224.04 1719.86 1227.02 1719.22 1228.17 1718.45 C 1233.06 1716.12 1244.87 1713.32 1250.96 1711.14 C 1261.15 1707.5 1271.3 1704.41 1281.54 1700.52 C 1350.55 1673.88 1415.27 1637.23 1473.61 1591.74 C 1480.59 1586.26 1489.82 1575.94 1497.46 1569.53 C 1504.99 1563.2 1525.38 1547.43 1530.73 1540.45 C 1530.68 1533.5 1487.81 1506.03 1479.46 1500.13 L 1406.1 1449.11 C 1397.87 1443.3 1368.45 1420.15 1361.99 1419.64 C 1302.03 1474.62 1214.27 1516.38 1134.6 1530.21 C 1131.65 1530.72 1126.04 1535.65 1123.82 1537.67 z M 1465.31 560.904 L 1468.81 559.044 C 1475.3 555.647 1530.15 518.337 1531.35 516.134 C 1530.97 508.217 1524.28 503.556 1519.11 498.619 C 1419.44 403.578 1291.24 339.281 1155.77 315.108 C 1145.19 313.221 1134.23 310.385 1123.58 308.603 C 1114.33 306.984 1103.42 309.738 1093.01 306.861 C 1091.96 309.822 1091.51 313.441 1092.07 316.548 C 1099.65 358.897 1106.82 401.45 1115.62 443.558 C 1116.6 448.401 1115.68 454.346 1116.67 459.095 C 1118.6 468.351 1122.27 478.365 1123.75 487.65 C 1125.63 499.476 1121.01 508.684 1131.45 518.352 C 1150.1 523.087 1169.64 525.052 1188.21 531.313 C 1240.62 548.924 1289.72 575.084 1334.56 607.231 C 1341.19 611.981 1358.63 629.807 1363.74 627.531 C 1378.28 621.065 1412.5 596.711 1425.88 587.6 C 1440.03 577.956 1455.28 570.145 1465.31 560.904 z M 547.854 1132.28 C 546.451 1134.27 544.381 1136.87 544.976 1139.19 C 547.044 1147.29 549.832 1156.26 552.125 1164.2 C 567.044 1215.83 591.082 1263.27 622.372 1306.84 C 627.383 1313.82 634.819 1325.95 642.331 1330.61 C 643.045 1331.06 644.149 1331.1 645.014 1331.19 C 650.343 1326.4 655.674 1317.46 660.145 1311.53 C 669.422 1299.23 677.994 1286.03 687.264 1273.8 C 687.327 1273.67 687.39 1273.54 687.453 1273.4 C 702.099 1252.54 734.595 1205.01 751.075 1182.59 C 750.941 1181.31 750.807 1180.03 750.673 1178.76 C 750.12 1178.12 749.567 1177.49 749.014 1176.86 C 742.293 1175.83 732.09 1173.86 725.845 1172.52 L 589.255 1142.77 C 579.372 1140.57 554.429 1136.56 547.854 1132.28 z M 1030.88 167.751 C 1036.26 178.328 1035.55 175.311 1040.37 166.211 C 1039.57 159.542 1029.82 158.502 1030.88 167.751 z M 653.34 1355.94 C 642.718 1368.26 613.699 1413.07 602.349 1428.96 C 601.876 1429.62 605.716 1433.49 606.456 1432.74 C 620.693 1418.45 639.182 1403.16 651.921 1387.5 C 645.887 1387.4 646.818 1390.78 644.465 1391.77 C 639.705 1389.66 646.443 1383.1 639.664 1380.42 C 639.258 1377.83 652.871 1362.93 653.34 1355.94 z M 1364.71 653.063 C 1366.26 653.31 1368.28 653.165 1369.38 654.474 C 1369.37 654.804 1369.24 656.478 1369.25 656.522 C 1375.94 658.069 1377.63 650.804 1382.13 649.704 C 1392.88 647.081 1383.17 642.059 1388.13 639.62 C 1392.26 637.594 1388.09 643.488 1394.99 641.632 C 1401.45 641.798 1404.64 634.678 1408.51 633.122 C 1413.7 631.034 1415.81 624.981 1420.59 625.198 L 1422.16 625.236 C 1423.27 624.547 1439.54 609.45 1439.81 608.356 C 1441.58 601.04 1434.45 604.81 1430.7 608.134 C 1427.78 609.797 1425.61 611.146 1422.83 613.064 C 1408.49 623.298 1393.64 632.621 1379.27 642.782 C 1376.79 644.54 1366.19 651.587 1364.71 653.063 z M 689.669 1419.89 C 689.166 1420.35 688.663 1420.81 688.16 1421.27 C 648.932 1451.29 607.124 1478.08 566.911 1506.76 C 555.253 1515.08 532.516 1527.55 523.961 1538.02 C 523.943 1542.23 526.804 1544.54 529.755 1547.58 C 543.991 1562.28 560.659 1573.53 574.851 1588.33 C 582.157 1593.21 590.299 1598.48 597.186 1603.81 C 650.692 1645.21 711.59 1677.91 775.004 1701.26 C 785.629 1705.17 814.172 1716.15 824.211 1716.08 C 836.904 1725.42 943.083 1744.01 958.812 1743.01 L 960.111 1742.17 C 961.489 1734.36 959.24 1726.07 957.733 1718.4 C 947.034 1663.92 937.216 1609.27 926.021 1554.89 C 924.465 1547.33 923.553 1542.89 923.302 1535.24 C 910.939 1526.72 907.691 1529.28 894.192 1526.09 C 826.06 1510.01 743.957 1469.54 694.192 1420.68 C 691.819 1420.06 692.079 1420.01 689.669 1419.89 z M 1258.61 1465.06 C 1281.19 1452.63 1324.3 1428.49 1342.34 1405.97 C 1342.88 1405.31 1341.91 1403.1 1341.61 1402.11 C 1301.58 1379.49 1260.72 1341.81 1221.21 1316.9 C 1206.52 1307.64 1188.79 1290.5 1172.65 1285.35 C 1169.36 1297.6 1168.07 1308.71 1165.79 1321.11 L 1153.82 1387.23 L 1138.7 1469.61 C 1137.27 1477.68 1132.86 1500.03 1133.13 1506.47 C 1147.39 1512.97 1246.65 1475.69 1258.61 1465.06 z M 1284.02 1017.93 C 1273.15 1016.58 1204.91 1018.41 1202.11 1016.77 C 1200.58 1013.71 1213.99 1016.47 1206.45 1002.66 L 1206.42 1002.79 C 1205.54 1002.39 1205.52 1002.24 1204.78 1002.58 C 1204.29 1002.33 1203.81 1002.09 1203.32 1001.84 C 1201.4 1003.34 1193.35 1015.43 1191.43 1018.2 C 1217 1018.49 1242.71 1017.85 1268.3 1018.09 C 1273.61 1018.14 1278.71 1018.23 1284.02 1017.93 z M 1018.57 1205.74 C 1018.76 1200.5 1018.37 1193.72 1018.21 1188.31 C 1012.8 1191.96 1007.3 1195.51 1002.12 1199.47 C 1007.61 1199.58 1005.77 1198.9 1009.51 1201.81 C 1011.43 1203.3 1015.9 1198.67 1016.57 1198.48 C 1018.39 1198.94 1016.58 1203.26 1018.57 1205.74 z M 782.531 696.674 L 839.593 736.183 C 845.991 740.7 869.028 757.911 875.205 760.276 C 876.983 759.678 878.789 758.97 879.351 756.724 C 884.093 737.533 887.556 717.959 891.055 698.486 C 899.438 651.825 909.349 605.195 916.037 558.291 C 916.896 552.27 924.668 539.872 914.189 537.943 L 913.154 538.632 C 903.163 545.165 896.231 543.866 885.529 547.086 C 828.77 564.166 771.96 591.298 726.456 629.67 C 721.933 633.484 710.037 638.307 708.898 643.176 C 711.511 649.951 742.398 668.217 749.803 673.544 C 755.137 677.382 778.506 695.585 782.531 696.674 z M 1884.85 1016.07 C 1885.37 1008.1 1882.21 1009.07 1873.69 1008.12 C 1873.37 1010.62 1868.45 1011.11 1870.5 1014.47 C 1872.57 1017.86 1881.49 1016.45 1884.85 1016.07 z M 157.86 1034.21 L 157.886 1034.93 C 159.33 1035.94 160.468 1036.99 162.096 1037.66 C 163.564 1038.27 165.219 1038.22 166.652 1037.54 C 167.895 1036.93 168.815 1035.82 169.175 1034.49 C 171.297 1026.5 160.396 1032.3 157.86 1034.21 z M 607.16 600.311 C 612.314 607.067 614.965 609.679 621.064 615.769 C 624.075 614.593 624.307 614.62 626.98 612.852 C 620.672 608.217 614.05 604.026 607.16 600.311 z M 1278.91 895.456 C 1280.9 895.706 1284.37 896.742 1285.97 895.792 C 1296.11 889.756 1282.87 888.689 1292.7 885.338 C 1283.98 883.816 1284.17 887.723 1278.91 895.456 z M 872.55 1290.83 C 863.766 1295.86 858.141 1302.5 849.814 1308.36 C 843.317 1312.94 836.589 1317.06 830.119 1321.62 L 771.127 1363.51 C 755.655 1374.39 740.455 1385.72 724.83 1396.39 C 721.241 1398.84 714.654 1400.86 712.925 1403.54 C 712.861 1417.36 783.973 1461.88 797.508 1466.91 C 805.297 1468.95 813.096 1475.21 820.464 1478.21 C 841.346 1486.72 895.971 1508.16 916.265 1508.29 C 916.106 1497.53 910.014 1470.13 907.712 1458.07 C 898.666 1410.71 889.973 1362.9 880.199 1315.71 C 878.82 1309.05 879.684 1300.15 877.995 1293.59 C 875.449 1291.72 875.565 1291.81 872.55 1290.83 z M 1008.46 1877.01 C 1009.28 1881.26 1009.38 1884.97 1011.12 1888.95 C 1016.73 1885.13 1018.2 1884.5 1016.05 1877.5 C 1015.82 1876.75 1015.3 1873.58 1014.47 1873 L 1014.23 1873.14 C 1013.69 1874.55 1014.2 1875.94 1013.94 1877.37 C 1011.99 1878.63 1012.17 1874.28 1011.26 1874.22 C 1009.4 1876.76 1011.95 1876.59 1008.46 1877.01 z M 1361.23 1270.5 L 1362.34 1272 C 1371.45 1284.32 1399.11 1328.46 1409.42 1334.52 C 1416.08 1335.06 1415.19 1330.43 1418.35 1326.48 C 1443.34 1295.27 1463.44 1263.74 1480.05 1227.14 C 1493.74 1196.98 1501.83 1166.18 1510.47 1134.14 C 1508.74 1131.52 1509.9 1132.59 1506.21 1131.62 C 1496.01 1132.22 1489.23 1134.5 1479.03 1136.25 L 1420.06 1146.33 L 1333.47 1161.1 C 1323.88 1162.7 1299.29 1165.17 1292.43 1169.11 C 1291.22 1173.69 1290.93 1173.25 1294.2 1176.73 C 1299.19 1182.04 1302.09 1186.69 1306.56 1193.15 C 1324.33 1218.88 1343.31 1244.15 1360.7 1270.09 C 1360.88 1270.23 1361.05 1270.37 1361.23 1270.5 z M 1409.27 712.588 C 1401.16 719.617 1309.03 852.028 1303.01 864.311 L 1303.11 866.62 C 1310.73 871.333 1392.92 888.045 1405.79 893.035 C 1408.44 894.061 1421.21 896.289 1422.69 897.166 C 1429.39 899.951 1499.59 914.977 1508.01 914.506 C 1514.22 910.444 1506.1 898.453 1504.82 892.678 C 1491.54 832.405 1460.85 775.841 1424.02 726.759 C 1420.58 722.174 1416.49 718.097 1413.31 713.409 C 1412.22 713.176 1410.31 712.712 1409.27 712.588 z M 641.927 710.439 C 630.178 729 616.281 744.425 603.709 764.55 C 590.816 785.102 579.588 806.652 570.13 828.994 C 562.657 846.835 555.483 864.666 551.574 883.502 C 549.726 892.406 542.378 903.013 546.066 912.467 C 547.339 913.639 547.897 914.877 549.536 914.557 C 579.046 908.791 609.306 902.469 638.526 895.786 C 644.027 895.872 662.975 892.489 667.896 890.757 C 680.616 886.281 747.058 878.537 753.569 872.21 L 754.801 871.041 C 755.934 869.957 757.039 868.845 758.116 867.705 C 744.66 856.719 736.418 841.36 726.362 826.678 L 673.551 750.943 C 665.021 738.607 655.938 725.221 647.016 713.053 C 645.844 711.456 643.792 710.88 641.927 710.439 z M 1133.89 540.25 C 1133.31 541.385 1131.69 544.471 1131.94 545.701 C 1133.98 555.734 1137.2 565.88 1139.1 576.014 L 1163.62 714.066 C 1165.84 727.285 1167.61 742.562 1169.32 755.993 C 1169.64 758.495 1171.74 759.018 1173.74 760.011 C 1179.61 757.517 1195 746.551 1201.11 742.379 L 1255.01 705.26 C 1260.48 701.46 1266.72 695.732 1272.18 693.06 C 1279.63 688.834 1339.51 647.43 1340.84 643.69 C 1341.27 642.482 1340.74 640.618 1340.21 639.549 C 1338.2 635.536 1329.28 631.144 1325.59 628.124 C 1283.99 594.128 1225.68 565.856 1174.25 550.187 C 1165.18 547.422 1156 545.733 1146.84 543.426 C 1144.34 542.794 1142.49 540.768 1140.11 540.197 C 1138.22 539.742 1135.82 540.069 1133.89 540.25 z M 1015.11 924.547 C 960.456 930.059 920.666 978.898 926.311 1033.53 C 931.956 1088.17 980.891 1127.84 1035.51 1122.07 C 1089.95 1116.31 1129.46 1067.58 1123.83 1013.13 C 1118.2 958.678 1069.57 919.054 1015.11 924.547 z M 1736.44 1087.97 C 1729.86 1092.86 1726.26 1091.72 1718.45 1093.25 C 1664.68 1103.74 1610.95 1114.44 1556.97 1123.81 C 1552.04 1124.66 1544.88 1124.43 1539.78 1124.48 C 1536.77 1126.57 1534.82 1128.03 1531.56 1129.66 C 1533.56 1144.38 1525.27 1154.09 1524.23 1167.58 C 1523.54 1176.43 1519.44 1182.96 1516.74 1191.2 C 1497.87 1248.99 1466.29 1302.45 1427.14 1348.77 C 1425.89 1350.24 1424.15 1353.81 1424.07 1355.93 C 1440.33 1386.9 1476.91 1433.35 1493.91 1461.57 C 1500.26 1470.84 1532.56 1521.49 1540.04 1523.8 C 1542.12 1524.44 1545.37 1522.98 1547.1 1521.81 C 1557.87 1514.52 1567.22 1499.98 1576.04 1490.27 C 1594.27 1470.22 1609.8 1448.77 1624.87 1426.29 C 1676.53 1350.28 1712.43 1264.68 1730.46 1174.56 C 1733.07 1161.5 1746.16 1097.67 1742.71 1090.1 C 1740.19 1088.02 1739.7 1088.29 1736.44 1087.97 z M 1538.02 522.837 C 1532.78 529.619 1530.84 534.489 1526.25 541.284 L 1494.53 587.605 C 1472.56 619.578 1449.31 651.166 1428.29 683.882 C 1427.35 685.777 1423.54 690.904 1424.76 693.043 C 1431.97 705.764 1442.63 717.206 1451.34 729.305 C 1483.96 774.416 1508.3 824.501 1523.66 878.012 C 1527.17 890.237 1529 903.227 1532.32 915.672 C 1534.87 925.253 1550.91 923.753 1560.01 925.806 C 1579.44 930.189 1599.57 933.033 1619.03 937.386 C 1629.03 939.275 1637.3 941.146 1647.08 943.435 L 1648.57 943.475 C 1666.6 944.078 1731.91 962.774 1741.64 959.24 C 1748.23 950.142 1738.11 917.996 1736.43 906.629 C 1735.72 901.811 1735.93 896.746 1735.06 891.998 C 1714.06 777.55 1665.08 670.074 1592.48 579.143 C 1578.84 561.77 1561.2 540.156 1544.74 524.587 C 1543.71 523.608 1539.57 522.972 1538.02 522.837 z M 309.139 1089.12 C 306.549 1098.1 309.21 1105.82 310.375 1114.69 C 321.857 1202.18 346.371 1287.77 389.151 1365.36 C 401.119 1386.76 413.961 1407.67 427.642 1428.02 C 434.931 1438.84 500.974 1529.98 512.341 1524.36 C 516.5 1522.31 558.356 1461.56 559.849 1456.57 C 569.871 1442.63 627.774 1359.77 630.078 1350.03 C 625.756 1343.07 619.614 1337.32 614.63 1330.92 C 576.458 1281.92 547.284 1225.31 530.584 1165.45 C 528.549 1158.16 523.616 1131.22 519.808 1129.62 C 509.18 1125.14 470.091 1118.87 459.243 1116.75 C 411.547 1107.43 365.151 1098.51 317.571 1089.24 C 314.009 1088.55 312.73 1088.75 309.139 1089.12 z" fill="rgb(73,47,11)" transform="translate(0,0)"></path>
<path d="M 1014.94 889.283 C 1089.34 883.5 1154.24 939.35 1159.62 1013.78 C 1165 1088.21 1108.79 1152.81 1034.33 1157.78 C 960.448 1162.71 896.455 1107.03 891.12 1033.18 C 885.785 959.319 941.111 895.023 1014.94 889.283 z M 1035.51 1122.07 C 1089.95 1116.31 1129.46 1067.58 1123.83 1013.13 C 1118.2 958.678 1069.57 919.054 1015.11 924.547 C 960.456 930.059 920.666 978.898 926.311 1033.53 C 931.956 1088.17 980.891 1127.84 1035.51 1122.07 z" fill="rgb(183,163,127)" transform="translate(0,0)"></path>
<path d="M 1015.11 924.547 C 1069.57 919.054 1118.2 958.678 1123.83 1013.13 C 1129.46 1067.58 1089.95 1116.31 1035.51 1122.07 C 980.891 1127.84 931.956 1088.17 926.311 1033.53 C 920.666 978.898 960.456 930.059 1015.11 924.547 z M 1027.24 1044.7 C 1031.82 1042.34 1039.92 1038.8 1041.33 1033.31 C 1042.52 1028.68 1044.87 1024.26 1043.22 1019.4 C 1038.53 1005.61 1033.68 1002.29 1020.11 1003.29 C 1009.07 1006.31 1001.77 1015.41 1004.76 1027.99 C 1005.23 1029.96 1008.15 1034.74 1009.25 1037.2 L 1012.01 1038.81 C 1019.03 1042.96 1019.14 1044.05 1027.24 1044.7 z" fill="rgb(73,47,11)" transform="translate(0,0)"></path>
<path d="M 1020.11 1003.29 C 1033.68 1002.29 1038.53 1005.61 1043.22 1019.4 C 1044.87 1024.26 1042.52 1028.68 1041.33 1033.31 C 1039.92 1038.8 1031.82 1042.34 1027.24 1044.7 C 1019.14 1044.05 1019.03 1042.96 1012.01 1038.81 L 1009.25 1037.2 C 1008.15 1034.74 1005.23 1029.96 1004.76 1027.99 C 1001.77 1015.41 1009.07 1006.31 1020.11 1003.29 z M 1029 1016 C 1031.18 1010.12 1032.72 1009.84 1026.49 1008.38 C 1022.67 1012.38 1022.55 1012.81 1027.85 1015.43 L 1029 1016 z M 1016.47 1036.51 C 1017.53 1036.21 1018.33 1035.31 1018.49 1034.21 C 1018.66 1033.11 1018.17 1032.01 1017.23 1031.41 C 1016.3 1030.81 1015.1 1030.81 1014.17 1031.41 C 1012.99 1032.17 1012.54 1033.67 1013.12 1034.95 C 1013.69 1036.23 1015.12 1036.89 1016.47 1036.51 z" fill="rgb(240,227,191)" fill-opacity="0.164706" transform="translate(0,0)"></path>
<path d="M 1026.49 1008.38 C 1032.72 1009.84 1031.18 1010.12 1029 1016 L 1027.85 1015.43 C 1022.55 1012.81 1022.67 1012.38 1026.49 1008.38 z" fill="rgb(240,227,191)" fill-opacity="0.235294" transform="translate(0,0)"></path>
<path d="M 1014.17 1031.41 C 1015.1 1030.81 1016.3 1030.81 1017.23 1031.41 C 1018.17 1032.01 1018.66 1033.11 1018.49 1034.21 C 1018.33 1035.31 1017.53 1036.21 1016.47 1036.51 C 1015.12 1036.89 1013.69 1036.23 1013.12 1034.95 C 1012.54 1033.67 1012.99 1032.17 1014.17 1031.41 z" fill="rgb(240,227,191)" fill-opacity="0.109804" transform="translate(0,0)"></path>
<path d="M 157.86 1034.21 L 158.118 1029.4 C 160.228 1027.78 250.482 1029 258.967 1029.01 L 663.275 1029.28 C 726.906 1029.32 794.304 1028.03 857.615 1029.41 C 839.865 1055.98 821.77 1082.31 803.336 1108.41 C 791.347 1125.66 779.095 1144.23 766.67 1161.07 C 640.248 1132.56 513.325 1106.32 385.963 1082.36 L 215.945 1050.37 C 206.382 1048.56 164.784 1041.7 158.727 1038.95 C 157.767 1036.97 157.799 1037.13 157.886 1034.93 C 159.33 1035.94 160.468 1036.99 162.096 1037.66 C 163.564 1038.27 165.219 1038.22 166.652 1037.54 C 167.895 1036.93 168.815 1035.82 169.175 1034.49 C 171.297 1026.5 160.396 1032.3 157.86 1034.21 z" fill="rgb(183,163,127)" transform="translate(0,0)"></path>
<path d="M 1040.37 166.211 C 1047.92 198.253 1058.1 233.134 1064.36 264.697 C 1070.17 293.963 1074.26 327.55 1079.45 357.528 C 1090.82 423.108 1104.46 489.067 1115.75 554.51 L 1140.55 694.982 C 1145.12 720.591 1149.54 749.29 1155.05 774.507 C 1130.44 792.769 1105.49 810.579 1080.22 827.928 C 1065.52 838.091 1046.35 851.681 1031.16 860.561 L 1030.88 167.751 C 1036.26 178.328 1035.55 175.311 1040.37 166.211 z" fill="rgb(183,163,127)" transform="translate(0,0)"></path>
<path d="M 1292.7 885.338 C 1303.69 888.316 1314.88 890.673 1325.81 893.642 C 1454.15 928.508 1584.6 951.109 1715.11 976.62 C 1755.04 984.3 1794.91 992.256 1834.73 1000.49 C 1846.87 1003 1862.24 1005.4 1873.69 1008.12 C 1873.37 1010.62 1868.45 1011.11 1870.5 1014.47 C 1872.57 1017.86 1881.49 1016.45 1884.85 1016.07 L 1884.22 1018.48 C 1877.72 1020.64 1817.85 1018.53 1806.15 1018.52 L 1487.06 1017.92 L 1346.15 1018.22 C 1328.5 1018.18 1300.71 1018.99 1284.02 1017.93 C 1273.15 1016.58 1204.91 1018.41 1202.11 1016.77 C 1200.58 1013.71 1213.99 1016.47 1206.45 1002.66 L 1206.42 1002.79 C 1205.54 1002.39 1205.52 1002.24 1204.78 1002.58 C 1204.29 1002.33 1203.81 1002.09 1203.32 1001.84 C 1210.79 990.062 1220.18 977.867 1228.42 966.411 C 1245.56 942.983 1262.39 919.329 1278.91 895.456 C 1280.9 895.706 1284.37 896.742 1285.97 895.792 C 1296.11 889.756 1282.87 888.689 1292.7 885.338 z" fill="rgb(183,163,127)" transform="translate(0,0)"></path>
<path d="M 1002.12 1199.47 C 1007.61 1199.58 1005.77 1198.9 1009.51 1201.81 C 1011.43 1203.3 1015.9 1198.67 1016.57 1198.48 C 1018.39 1198.94 1016.58 1203.26 1018.57 1205.74 C 1020.15 1253.82 1018.74 1304.82 1018.69 1353.19 L 1018.4 1634.31 L 1018.61 1785.36 C 1018.93 1807.57 1019.01 1829.78 1018.85 1851.98 C 1018.79 1863.09 1019.22 1875.99 1018.19 1886.9 C 1015.55 1889.23 1015.48 1888.49 1011.12 1888.95 C 1016.73 1885.13 1018.2 1884.5 1016.05 1877.5 C 1015.82 1876.75 1015.3 1873.58 1014.47 1873 L 1014.23 1873.14 C 1013.69 1874.55 1014.2 1875.94 1013.94 1877.37 C 1011.99 1878.63 1012.17 1874.28 1011.26 1874.22 C 1009.4 1876.76 1011.95 1876.59 1008.46 1877.01 L 893.553 1276.19 C 929.908 1250.98 965.659 1224.35 1002.12 1199.47 z" fill="rgb(183,163,127)" transform="translate(0,0)"></path>
<path d="M 653.34 1355.94 C 668.007 1334.01 684.115 1311.32 699.716 1290.01 C 757.649 1210.85 811.054 1127.39 868.825 1048.29 C 884.373 1085.92 887.555 1095.52 915.378 1126.42 C 826.915 1212.52 740.357 1301.77 651.921 1387.5 C 645.887 1387.4 646.818 1390.78 644.465 1391.77 C 639.705 1389.66 646.443 1383.1 639.664 1380.42 C 639.258 1377.83 652.871 1362.93 653.34 1355.94 z" fill="rgb(183,163,127)" transform="translate(0,0)"></path>
<path d="M 1364.71 653.063 C 1366.26 653.31 1368.28 653.165 1369.38 654.474 C 1369.37 654.804 1369.24 656.478 1369.25 656.522 C 1375.94 658.069 1377.63 650.804 1382.13 649.704 C 1392.88 647.081 1383.17 642.059 1388.13 639.62 C 1392.26 637.594 1388.09 643.488 1394.99 641.632 C 1401.45 641.798 1404.64 634.678 1408.51 633.122 C 1413.7 631.034 1415.81 624.981 1420.59 625.198 L 1422.16 625.236 C 1365.37 682.712 1305.32 740.43 1247.66 797.402 L 1169.66 874.204 C 1156.87 886.711 1141.69 902.309 1128.57 913.948 C 1101.47 890.579 1087.23 882.657 1053.27 869.651 C 1157.43 798.825 1260.27 723.89 1364.71 653.063 z" fill="rgb(183,163,127)" transform="translate(0,0)"></path>
<path d="M 1126.62 1135.75 C 1128.48 1136.22 1128.81 1136.3 1130.24 1137.67 C 1185.08 1190.53 1239.5 1244.08 1294.06 1297.19 C 1327.86 1329.99 1361.46 1362.99 1394.88 1396.18 C 1408.98 1410.23 1423.19 1424.44 1437.29 1438.5 C 1440 1441.2 1440.93 1441.91 1441.12 1444.92 L 1439.21 1446.13 C 1431.24 1445.67 1406.33 1425.39 1398.59 1419.71 C 1352.46 1388.17 1305.19 1352.24 1259.31 1319.71 L 1053.54 1176.46 C 1085.51 1165.78 1100.9 1156.21 1126.62 1135.75 z" fill="rgb(147,113,60)" transform="translate(0,0)"></path>
<path d="M 626.98 612.852 C 644.058 623.894 661.578 636.736 678.363 648.394 L 793.324 728.515 L 922.667 817.533 C 946.571 833.919 973.86 851.747 997.039 868.797 C 965.162 883.153 951.609 889.079 923.893 910.984 C 859.915 849.63 796.325 787.872 733.127 725.715 C 706.005 699.478 679.084 673.033 652.367 646.382 C 642.502 636.614 630.456 625.631 621.064 615.769 C 624.075 614.593 624.307 614.62 626.98 612.852 z" fill="rgb(147,113,60)" transform="translate(0,0)"></path>
<path d="M 929.431 1139.68 C 932.698 1141.05 942.432 1149.47 946.609 1152.27 C 962.682 1162.94 980.033 1171.54 998.253 1177.88 C 949.081 1215.09 892.125 1253.89 841.383 1289.63 C 783.683 1331.12 725.765 1372.31 667.63 1413.2 C 661.964 1417.33 632.853 1438.72 627.89 1440.6 C 629.095 1436.18 903.252 1164.18 929.431 1139.68 z" fill="rgb(147,113,60)" transform="translate(0,0)"></path>
<path d="M 1431.25 643.25 L 1432.36 645.602 C 1429.3 648.641 1417.64 665.874 1414.53 670.338 L 1376.39 725.106 L 1240.49 916.396 L 1208.85 960.207 C 1199.86 972.83 1190.85 986.408 1180.43 997.78 C 1170.89 969.097 1161.01 951.961 1141.94 928.363 C 1166.36 903.01 1193.26 878.063 1218.44 853.265 L 1431.25 643.25 z" fill="rgb(147,113,60)" transform="translate(0,0)"></path>
<path d="M 1180.86 1049.4 C 1183.59 1050.53 1185.62 1053.98 1187.38 1056.42 L 1326.64 1255.01 C 1361.78 1304.67 1401.86 1358.16 1434.92 1408.36 C 1429.21 1403.7 1417.81 1391.83 1411.68 1385.92 C 1400.06 1375.2 1389.31 1363.79 1378.06 1352.69 C 1357.57 1332.74 1337.18 1312.68 1316.91 1292.52 L 1141.25 1121.76 C 1160.05 1098.69 1171.02 1077.11 1180.86 1049.4 z" fill="rgb(147,113,60)" transform="translate(0,0)"></path>
<path d="M 628.391 649.835 C 659.299 677.816 693.832 714.457 724.238 744.131 L 910.129 924.981 C 898.176 939.054 890.968 950.392 882.374 966.343 C 877.2 976.276 873.589 985.299 869.985 995.86 C 863.39 989.392 845.572 962.549 839.108 953.284 L 784.435 875.361 C 733.272 801.549 681.147 728.038 629.966 654.198 C 628.566 652.178 628.465 652.204 628.391 649.835 z" fill="rgb(147,113,60)" transform="translate(0,0)"></path>
<path d="M 651.921 1387.5 C 639.182 1403.16 620.693 1418.45 606.456 1432.74 C 605.716 1433.49 601.876 1429.62 602.349 1428.96 C 613.699 1413.07 642.718 1368.26 653.34 1355.94 C 652.871 1362.93 639.258 1377.83 639.664 1380.42 C 646.443 1383.1 639.705 1389.66 644.465 1391.77 C 646.818 1390.78 645.887 1387.4 651.921 1387.5 z" fill="rgb(183,163,127)" fill-opacity="0.807843" transform="translate(0,0)"></path>
<path d="M 1430.7 608.134 C 1434.45 604.81 1441.58 601.04 1439.81 608.356 C 1439.54 609.45 1423.27 624.547 1422.16 625.236 L 1420.59 625.198 C 1415.81 624.981 1413.7 631.034 1408.51 633.122 C 1404.64 634.678 1401.45 641.798 1394.99 641.632 C 1388.09 643.488 1392.26 637.594 1388.13 639.62 C 1383.17 642.059 1392.88 647.081 1382.13 649.704 C 1377.63 650.804 1375.94 658.069 1369.25 656.522 C 1369.24 656.478 1369.37 654.804 1369.38 654.474 C 1368.28 653.165 1366.26 653.31 1364.71 653.063 C 1366.19 651.587 1376.79 644.54 1379.27 642.782 C 1393.64 632.621 1408.49 623.298 1422.83 613.064 C 1423.48 613.471 1424.11 613.89 1424.74 614.321 C 1428.64 617.368 1433.32 614.358 1430.7 608.134 z" fill="rgb(183,163,127)" fill-opacity="0.866667" transform="translate(0,0)"></path>
<path d="M 1203.32 1001.84 C 1203.81 1002.09 1204.29 1002.33 1204.78 1002.58 C 1205.52 1002.24 1205.54 1002.39 1206.42 1002.79 L 1206.45 1002.66 C 1213.99 1016.47 1200.58 1013.71 1202.11 1016.77 C 1204.91 1018.41 1273.15 1016.58 1284.02 1017.93 C 1278.71 1018.23 1273.61 1018.14 1268.3 1018.09 C 1242.71 1017.85 1217 1018.49 1191.43 1018.2 C 1193.35 1015.43 1201.4 1003.34 1203.32 1001.84 z" fill="rgb(183,163,127)" fill-opacity="0.878431" transform="translate(0,0)"></path>
<path d="M 511.623 521.738 C 511.793 520.715 511.821 519.625 512.127 518.63 C 513.29 517.701 517.859 518.364 518.765 514.884 C 519.277 512.918 519.323 512.543 521.113 511.892 C 522.999 519.288 524.499 517.786 530.688 521.106 C 515.701 523.679 521.657 514.297 521.472 532.51 C 516.444 528.772 522.05 525.536 511.623 521.738 z" fill="rgb(73,47,11)" fill-opacity="0.815686" transform="translate(0,0)"></path>
<path d="M 1002.12 1199.47 C 1007.3 1195.51 1012.8 1191.96 1018.21 1188.31 C 1018.37 1193.72 1018.76 1200.5 1018.57 1205.74 C 1016.58 1203.26 1018.39 1198.94 1016.57 1198.48 C 1015.9 1198.67 1011.43 1203.3 1009.51 1201.81 C 1005.77 1198.9 1007.61 1199.58 1002.12 1199.47 z" fill="rgb(183,163,127)" fill-opacity="0.913725" transform="translate(0,0)"></path>
<path d="M 1873.69 1008.12 C 1882.21 1009.07 1885.37 1008.1 1884.85 1016.07 C 1881.49 1016.45 1872.57 1017.86 1870.5 1014.47 C 1868.45 1011.11 1873.37 1010.62 1873.69 1008.12 z" fill="rgb(183,163,127)" fill-opacity="0.803922" transform="translate(0,0)"></path>
<path d="M 1030.88 167.751 C 1029.82 158.502 1039.57 159.542 1040.37 166.211 C 1035.55 175.311 1036.26 178.328 1030.88 167.751 z" fill="rgb(183,163,127)" fill-opacity="0.568627" transform="translate(0,0)"></path>
<path d="M 1008.46 1877.01 C 1011.95 1876.59 1009.4 1876.76 1011.26 1874.22 C 1012.17 1874.28 1011.99 1878.63 1013.94 1877.37 C 1014.2 1875.94 1013.69 1874.55 1014.23 1873.14 L 1014.47 1873 C 1015.3 1873.58 1015.82 1876.75 1016.05 1877.5 C 1018.2 1884.5 1016.73 1885.13 1011.12 1888.95 C 1009.38 1884.97 1009.28 1881.26 1008.46 1877.01 z" fill="rgb(183,163,127)" fill-opacity="0.878431" transform="translate(0,0)"></path>
<path d="M 1278.91 895.456 C 1284.17 887.723 1283.98 883.816 1292.7 885.338 C 1282.87 888.689 1296.11 889.756 1285.97 895.792 C 1284.37 896.742 1280.9 895.706 1278.91 895.456 z" fill="rgb(183,163,127)" fill-opacity="0.909804" transform="translate(0,0)"></path>
<path d="M 607.16 600.311 C 614.05 604.026 620.672 608.217 626.98 612.852 C 624.307 614.62 624.075 614.593 621.064 615.769 C 614.965 609.679 612.314 607.067 607.16 600.311 z" fill="rgb(152,121,75)" fill-opacity="0.968627" transform="translate(0,0)"></path>
<path d="M 157.86 1034.21 C 160.396 1032.3 171.297 1026.5 169.175 1034.49 C 168.815 1035.82 167.895 1036.93 166.652 1037.54 C 165.219 1038.22 163.564 1038.27 162.096 1037.66 C 160.468 1036.99 159.33 1035.94 157.886 1034.93 L 157.86 1034.21 z" fill="rgb(183,163,127)" fill-opacity="0.870588" transform="translate(0,0)"></path>
<path d="M 1422.83 613.064 C 1425.61 611.146 1427.78 609.797 1430.7 608.134 C 1433.32 614.358 1428.64 617.368 1424.74 614.321 C 1424.11 613.89 1423.48 613.471 1422.83 613.064 z" fill="rgb(183,163,127)" fill-opacity="0.733333" transform="translate(0,0)"></path>
<path d="M 1431.25 643.25 C 1434.11 639.243 1437.1 637.371 1440.92 634.374 C 1438.27 638.022 1435.34 642.259 1432.36 645.602 L 1431.25 643.25 z" fill="rgb(96,64,24)" transform="translate(0,0)"></path>
<path d="M 1019.76 33.6996 C 1019.77 32.094 1020.51 11.3366 1027.59 17.6235 C 1028.71 18.6196 1028.24 29.9371 1029.1 33.9946 C 1022.48 32.7595 1027.85 29.2589 1024.4 25.9447 L 1022.84 26.6223 L 1022.92 26.4309 C 1020.98 29.1634 1021.96 28.5444 1020.77 31.3092 L 1019.76 33.6996 z" fill="rgb(73,47,11)" fill-opacity="0.94902" transform="translate(0,0)"></path>
<path d="M 1019.84 2020.94 C 1030.54 2024.03 1021.81 2018.4 1028.16 2013.09 C 1028.7 2019.98 1031.14 2044.27 1021.33 2026.73 C 1020.05 2024.45 1020.1 2023.59 1019.84 2020.94 z" fill="rgb(73,47,11)" fill-opacity="0.964706" transform="translate(0,0)"></path>
<metadata></metadata></svg>